
        <svg xmlns="http://www.w3.org/2000/svg" xmlns:xlink="http://www.w3.org/1999/xlink" version="1.1" width="3214.285714285714" 
        height="2689.0696775715646" viewBox="0 0 3214.285714285714 2689.0696775715646">
			<rect fill="#eaeaea" width="3214.285714285714" height="2689.0696775715646"/>
			<g transform="scale(10.714285714285714) translate(10, 10)">
				<defs id="SvgjsDefs1033"></defs><g id="SvgjsG1034" featureKey="symbolFeature-0" transform="matrix(2.2398955859220124,0,0,2.2398955859220124,81.7631366518788,-2.2398955859220124)" fill="#ff2e63"><g xmlns="http://www.w3.org/2000/svg"><path d="M42.9599609,51H9.0400391c-0.5527344,0-1-0.4472656-1-1V19.7714844C8.0400391,9.4208984,16.09375,1,25.9921875,1   c1.3427734,0,2.671875,0.1542969,3.953125,0.4589844c3.3310547,0.7744141,6.3691406,2.5195313,8.78125,5.0449219   c3.375,3.5390625,5.2333984,8.2509766,5.2333984,13.2675781V50C43.9599609,50.5527344,43.5126953,51,42.9599609,51z M10.0400391,49   h31.9199219V19.7714844c0-4.5009766-1.6621094-8.7216797-4.6796875-11.8867188   c-2.1425781-2.2421875-4.8369141-3.7919922-7.7929688-4.4794922C28.3535156,3.1357422,27.1787109,3,25.9921875,3   c-8.7958984,0-15.9521484,7.5234375-15.9521484,16.7714844V49z"></path></g><g xmlns="http://www.w3.org/2000/svg"><g><g><path d="M23.1777344,51h-3.546875c-0.5458984,0-0.9912109-0.4384766-1-0.984375     c-0.1660156-10.9189453,8.5585938-15.3203125,8.9296875-15.5029297c0.4970703-0.2441406,1.0957031-0.0361328,1.3388672,0.4580078     c0.2421875,0.4960938,0.0371094,1.0957031-0.4580078,1.3388672C28.1289063,36.4638672,21.0078125,40.0966797,20.6435547,49     H22.46875c2.9345703-7.8955078,9.3251953-9.1347656,9.6025391-9.1855469     c0.5498047-0.0976563,1.0634766,0.2636719,1.1621094,0.8066406c0.0976563,0.5429688-0.2626953,1.0625-0.8046875,1.1611328     c-0.2636719,0.0507813-5.8857422,1.2099609-8.3017578,8.53125C23.9921875,50.7236328,23.609375,51,23.1777344,51z"></path></g><g><path d="M18.7773438,51h-5.4150391c-0.3134766,0-0.6083984-0.1464844-0.796875-0.3964844     c-0.1894531-0.2490234-0.2509766-0.5732422-0.1660156-0.8740234c2.1503906-7.6464844-5.9628906-13.9511719-6.0449219-14.0146484     c-0.3955078-0.3017578-0.5087891-0.8496094-0.265625-1.2841797c0.2441406-0.4326172,0.7685547-0.6230469,1.2333984-0.4433594     c0.5478516,0.2128906,13.3994141,5.328125,12.4511719,16.1005859C19.7275391,50.6044922,19.2958984,51,18.7773438,51z      M14.6103516,49h3.2109375c-0.0009766-4.3925781-2.8515625-7.6972656-5.6796875-9.8945313     C13.8623047,41.6923828,15.2636719,45.1220703,14.6103516,49z"></path></g><g><path d="M19.2490234,51H11.46875c-0.4619141,0-0.8632813-0.3164063-0.9716797-0.765625     c-0.4199219-1.7382813-1.3056641-3.4375-2.6308594-5.0498047c-2.6943359-3.2880859-6.2783203-5.1025391-6.3144531-5.1201172     c-0.4941406-0.2470703-0.6943359-0.8476563-0.4472656-1.3417969c0.2460938-0.4941406,0.8476563-0.6923828,1.3417969-0.4472656     c0.1621094,0.0810547,4.0048828,2.0263672,6.9658203,5.640625C10.7392578,45.5302734,11.6845703,47.2373047,12.2304688,49     h5.8310547c-2.0068359-12.9111328,4.6201172-18.5302734,7.1845703-19.4951172     c0.5175781-0.1962891,1.09375,0.0673828,1.2880859,0.5830078c0.1953125,0.5175781-0.0664063,1.09375-0.5830078,1.2880859     c-2.8085938,1.0576172-7.9023438,6.9541016-5.7197266,18.4375c0.0556641,0.2929688-0.0224609,0.5947266-0.2119141,0.8242188     C19.8291016,50.8671875,19.546875,51,19.2490234,51z"></path></g></g><g><g><g><g><path d="M50.0009766,51h-7.4414063c-0.5527344,0-1-0.4472656-1-1V19.7714844       c0-4.5009766-1.6621094-8.7226563-4.6806641-11.8867188c-2.1425781-2.2431641-4.8369141-3.7919922-7.7929688-4.4794922       C28.6337891,3.3007813,28.3134766,2.8984375,28.3125,2.4345703c-0.0009766-0.4648438,0.3173828-0.8681641,0.7685547-0.9755859       C30.3623047,1.1542969,31.6914063,1,33.0341797,1c4.8105469,0,9.3320313,1.9541016,12.7324219,5.5019531       c3.3759766,3.5400391,5.234375,8.2519531,5.234375,13.2695313V50C51.0009766,50.5527344,50.5537109,51,50.0009766,51z        M43.5595703,49h5.4414063V19.7714844c0-4.5019531-1.6621094-8.7226563-4.6796875-11.8867188       c-2.8564453-2.9804688-6.6005859-4.6953125-10.6054688-4.8701172c1.6962891,0.8935547,3.2519531,2.0673828,4.609375,3.4892578       c3.3759766,3.5380859,5.234375,8.25,5.234375,13.2675781V49z"></path></g><g><g><path d="M25.5996094,36.7207031c-0.5527344,0-1-0.4472656-1-1V16.2792969c0-0.5527344,0.4472656-1,1-1s1,0.4472656,1,1        v19.4414063C26.5996094,36.2734375,26.1523438,36.7207031,25.5996094,36.7207031z"></path></g><g><path d="M31.0585938,22.2783203H20.1396484c-0.5527344,0-1-0.4472656-1-1s0.4472656-1,1-1h10.9189453        c0.5527344,0,1,0.4472656,1,1S31.6113281,22.2783203,31.0585938,22.2783203z"></path></g></g></g></g></g></g></g><g id="SvgjsG1035" featureKey="nameFeature-0" transform="matrix(0.9165300951209244,0,0,0.9165300951209244,-1.833059097652834,118.94861165525512)" fill="#252a34"><path d="M18.32 42.76 c-0.16 0 -0.36 -0.12 -0.44 -0.28 l-1.2 -2.48 c-0.56 0.08 -1.16 0.12 -1.8 0.12 c-2.36 0 -4.56 -0.6 -6.52 -1.72 s-3.52 -2.68 -4.64 -4.64 s-1.72 -4.16 -1.72 -6.56 s0.6 -4.6 1.72 -6.56 s2.68 -3.48 4.6 -4.6 c1.96 -1.12 4.16 -1.68 6.56 -1.68 s4.6 0.56 6.56 1.68 c1.92 1.12 3.52 2.64 4.64 4.6 s1.68 4.16 1.68 6.56 c0 2.36 -0.56 4.6 -1.68 6.56 c-0.92 1.56 -2.08 2.84 -3.48 3.88 l2 4.28 c0.08 0.08 0.16 0.2 0.16 0.32 c0 0.28 -0.24 0.52 -0.52 0.52 l-5.92 0 z M14 34.28 l-1.6 -3.36 c-0.08 -0.08 -0.12 -0.2 -0.12 -0.32 c0 -0.28 0.24 -0.52 0.52 -0.52 l5.88 0 c0.2 0 0.36 0.12 0.48 0.28 l0.72 1.52 c0.24 -0.32 0.44 -0.68 0.64 -1.04 c0.6 -1.08 0.88 -2.32 0.88 -3.64 s-0.28 -2.52 -0.88 -3.6 c-0.56 -1.08 -1.36 -1.96 -2.36 -2.56 c-0.96 -0.64 -2.04 -0.92 -3.2 -0.92 s-2.28 0.28 -3.28 0.92 c-1.04 0.64 -1.84 1.48 -2.44 2.56 c-0.56 1.08 -0.88 2.28 -0.88 3.6 s0.32 2.52 0.92 3.6 s1.4 1.96 2.4 2.6 c0.72 0.44 1.52 0.76 2.32 0.88 z M32.28 40 c-0.28 0 -0.52 -0.24 -0.52 -0.52 l0 -23.96 c0 -0.28 0.24 -0.52 0.52 -0.52 l5.76 0 c0.2 0 0.4 0.12 0.48 0.28 l6 14.8 l5.96 -14.8 c0.08 -0.16 0.28 -0.28 0.48 -0.28 l5.76 0 c0.28 0 0.52 0.24 0.52 0.52 l0 23.96 c0 0.28 -0.24 0.52 -0.52 0.52 l-4.68 0 c-0.28 0 -0.52 -0.24 -0.52 -0.52 l0 -12.88 l-4.88 12.4 c-0.08 0.16 -0.28 0.28 -0.44 0.28 l-3.36 0 c-0.2 0 -0.4 -0.12 -0.48 -0.28 l-4.92 -12.4 l0 12.88 c0 0.28 -0.24 0.52 -0.52 0.52 l-4.64 0 z M73.72 40 c-2.4 0 -4.6 -0.56 -6.52 -1.68 c-1.96 -1.12 -3.52 -2.72 -4.68 -4.64 c-1.12 -1.96 -1.68 -4.2 -1.68 -6.6 c0 -2.36 0.56 -4.56 1.68 -6.52 c1.16 -1.96 2.68 -3.52 4.64 -4.64 s4.16 -1.68 6.56 -1.68 c2.36 0 4.56 0.56 6.52 1.68 s3.52 2.68 4.64 4.64 c1.16 1.96 1.72 4.16 1.72 6.52 c0 2.4 -0.56 4.6 -1.72 6.56 c-1.12 1.96 -2.68 3.52 -4.64 4.68 c-1.96 1.12 -4.16 1.68 -6.52 1.68 z M73.80000000000001 34.24 c1.16 0 2.24 -0.32 3.2 -0.92 c1 -0.64 1.8 -1.48 2.36 -2.6 c0.6 -1.08 0.88 -2.32 0.88 -3.64 c0 -1.28 -0.28 -2.52 -0.88 -3.6 c-0.56 -1.08 -1.36 -1.92 -2.36 -2.56 c-0.96 -0.6 -2.04 -0.92 -3.2 -0.92 c-1.2 0 -2.28 0.32 -3.28 0.92 c-1.04 0.64 -1.84 1.48 -2.44 2.56 c-0.6 1.12 -0.88 2.32 -0.88 3.6 c0 1.32 0.28 2.56 0.88 3.64 c0.64 1.08 1.44 1.96 2.44 2.56 c1 0.64 2.08 0.96 3.28 0.96 z M91.12 40 c-0.32 0 -0.52 -0.24 -0.52 -0.52 l0 -23.96 c0 -0.28 0.2 -0.52 0.52 -0.52 l9.08 0 c2.4 0 4.6 0.52 6.52 1.6 c1.92 1.04 3.4 2.52 4.48 4.44 c1.04 1.88 1.6 4.04 1.6 6.44 c0 2.44 -0.56 4.6 -1.64 6.48 c-1.08 1.92 -2.6 3.4 -4.56 4.44 c-1.92 1.08 -4.16 1.6 -6.6 1.6 l-8.88 0 z M96.80000000000001 34.4 l3.52 0 c1.16 0 2.24 -0.28 3.16 -0.84 c0.92 -0.6 1.68 -1.4 2.2 -2.44 s0.8 -2.24 0.8 -3.6 c0 -1.32 -0.28 -2.56 -0.84 -3.6 c-0.56 -1.08 -1.32 -1.88 -2.28 -2.48 c-0.96 -0.56 -2.08 -0.88 -3.28 -0.88 l-3.28 0 l0 13.84 z M128.12 40 c-0.28 0 -0.52 -0.24 -0.52 -0.52 l0 -23.96 c0 -0.28 0.24 -0.52 0.52 -0.52 l5.76 0 c0.2 0 0.4 0.12 0.48 0.28 l6 14.8 l5.96 -14.8 c0.08 -0.16 0.28 -0.28 0.48 -0.28 l5.76 0 c0.28 0 0.52 0.24 0.52 0.52 l0 23.96 c0 0.28 -0.24 0.52 -0.52 0.52 l-4.68 0 c-0.28 0 -0.52 -0.24 -0.52 -0.52 l0 -12.88 l-4.88 12.4 c-0.08 0.16 -0.28 0.28 -0.44 0.28 l-3.36 0 c-0.2 0 -0.4 -0.12 -0.48 -0.28 l-4.92 -12.4 l0 12.88 c0 0.28 -0.24 0.52 -0.52 0.52 l-4.64 0 z M157.60000000000002 40 c-0.16 0 -0.32 -0.08 -0.4 -0.24 c-0.12 -0.12 -0.12 -0.32 -0.08 -0.48 l9.32 -23.96 c0.08 -0.2 0.28 -0.32 0.48 -0.32 l5.36 0 c0.2 0 0.4 0.12 0.48 0.32 l9.16 23.96 c0.04 0.16 0.04 0.32 -0.08 0.48 c-0.08 0.16 -0.24 0.24 -0.4 0.24 l-5.56 0 c-0.2 0 -0.4 -0.12 -0.48 -0.32 l-1.48 -3.68 l-9 0.04 l-1.48 3.64 c-0.08 0.2 -0.28 0.32 -0.48 0.32 l-5.36 0 z M166.56 31 l5.76 0 l-2.88 -8.48 z M186.08 40 c-0.28 0 -0.52 -0.24 -0.52 -0.52 l0 -23.96 c0 -0.28 0.24 -0.52 0.52 -0.52 l4.72 0 c0.16 0 0.32 0.08 0.44 0.2 l9.2 14.2 l0 -13.88 c0 -0.28 0.24 -0.52 0.52 -0.52 l4.92 0 c0.28 0 0.52 0.24 0.52 0.52 l0 23.96 c0 0.28 -0.24 0.52 -0.52 0.52 l-4.72 0 c-0.16 0 -0.32 -0.08 -0.44 -0.2 l-9.16 -14.12 l0 13.8 c0 0.28 -0.24 0.52 -0.52 0.52 l-4.96 0 z M210.92000000000002 40 c-0.16 0 -0.32 -0.08 -0.4 -0.24 c-0.12 -0.12 -0.12 -0.32 -0.08 -0.48 l9.32 -23.96 c0.08 -0.2 0.28 -0.32 0.48 -0.32 l5.36 0 c0.2 0 0.4 0.12 0.48 0.32 l9.16 23.96 c0.04 0.16 0.04 0.32 -0.08 0.48 c-0.08 0.16 -0.24 0.24 -0.4 0.24 l-5.56 0 c-0.2 0 -0.4 -0.12 -0.48 -0.32 l-1.48 -3.68 l-9 0.04 l-1.48 3.64 c-0.08 0.2 -0.28 0.32 -0.48 0.32 l-5.36 0 z M219.88 31 l5.76 0 l-2.88 -8.48 z M250.04 40 c-2.36 0 -4.56 -0.56 -6.48 -1.68 c-1.96 -1.16 -3.48 -2.72 -4.6 -4.64 c-1.12 -1.96 -1.68 -4.2 -1.68 -6.6 s0.56 -4.6 1.72 -6.52 c1.12 -1.96 2.72 -3.52 4.68 -4.64 c2 -1.12 4.24 -1.68 6.68 -1.68 c1.76 0 3.48 0.32 5.2 1 c1.68 0.64 3.16 1.56 4.36 2.72 c0.2 0.16 0.24 0.44 0.08 0.68 l-2.92 3.84 c-0.12 0.12 -0.24 0.2 -0.4 0.24 c-0.12 0 -0.28 -0.08 -0.4 -0.16 c-0.8 -0.8 -1.72 -1.44 -2.8 -1.88 c-1.04 -0.44 -2.08 -0.68 -3.12 -0.68 c-1.24 0 -2.4 0.32 -3.4 0.92 c-1.04 0.64 -1.84 1.48 -2.44 2.56 s-0.88 2.28 -0.88 3.6 s0.28 2.56 0.88 3.64 s1.44 1.96 2.44 2.6 c1.04 0.6 2.2 0.92 3.4 0.92 c0.64 0 1.32 -0.12 2.08 -0.32 c0.64 -0.2 1.32 -0.48 1.92 -0.8 l0 -1.84 l-2.76 0 c-0.16 0 -0.28 -0.04 -0.36 -0.16 c-0.12 -0.08 -0.16 -0.2 -0.16 -0.36 l0.04 -4.48 c0 -0.28 0.24 -0.52 0.52 -0.52 l7.76 0 c0.28 0 0.52 0.24 0.52 0.52 l0 10.04 c0 0.16 -0.08 0.32 -0.24 0.44 c-1.24 0.96 -2.76 1.76 -4.52 2.32 c-1.76 0.6 -3.48 0.92 -5.12 0.92 z M264.88 40 l0 -23.96 c0 -1 0.2 -1.2 0.52 -1.2 l17.52 0 c0.28 0 0.52 0.2 0.52 0.48 l0 4.52 c0 0.28 -0.24 0.52 -0.52 0.52 l-11.84 0 l0 4.16 l7.48 0 c0.28 0 0.52 0.24 0.52 0.52 l0 4.48 c0 0.28 -0.24 0.52 -0.52 0.52 l-7.48 0 l0 4.28 l11.8 0 c0.28 0 0.52 0.24 0.52 0.52 l0 4.48 c0 0.28 -0.24 0.52 -0.52 0.52 l-17.48 0 c-0.32 0 -0.52 -0.24 -0.52 0.16 z M287.96 40 c-0.32 0 -0.52 -0.24 -0.52 -0.52 l0 -23.96 c0 -0.28 0.2 -0.52 0.52 -0.52 l9.76 0 c3.04 0 5.44 0.76 7.12 2.32 c2.48 2.24 3.32 6.48 2.12 9.6 c-0.44 1.12 -1.2 2.16 -2.16 2.92 c-0.56 0.44 -1.16 0.76 -1.76 1.08 c1.72 2.72 4.32 8.24 4.32 8.24 c0.04 0.08 0.12 0.2 0.12 0.32 c0 0.28 -0.24 0.52 -0.52 0.52 l-5.92 0 c-0.16 0 -0.36 -0.12 -0.44 -0.28 l-3.48 -7.64 c-1.24 0.08 -2.2 0.04 -3.48 0.04 l0 7.36 c0 0.28 -0.24 0.52 -0.52 0.52 l-5.16 0 z M293.64 26.560000000000002 c0 0 5.04 0.56 6.8 -0.6 c0.68 -0.44 1.08 -1.52 1.08 -2.32 c-0.04 -0.88 -0.48 -1.8 -1.2 -2.36 c-0.76 -0.64 -2.64 -0.84 -3.6 -0.84 l-3.08 0.08 l0 6.04 z"></path></g><g id="SvgjsG1036" featureKey="nameFeature-1" transform="matrix(1.4613778240107391,0,0,1.4613778240107391,-2.9227556480214782,147.1899801205699)" fill="#252a34"><path d="M2.52 40 c-0.32 0 -0.52 -0.24 -0.52 -0.52 l0 -23.96 c0 -0.28 0.2 -0.52 0.52 -0.52 l9.76 0 c3.04 0 5.44 0.76 7.12 2.32 c2.48 2.24 3.32 6.48 2.12 9.6 c-0.44 1.12 -1.2 2.16 -2.16 2.92 c-0.56 0.44 -1.16 0.76 -1.76 1.08 c1.72 2.72 4.32 8.24 4.32 8.24 c0.04 0.08 0.12 0.2 0.12 0.32 c0 0.28 -0.24 0.52 -0.52 0.52 l-5.92 0 c-0.16 0 -0.36 -0.12 -0.44 -0.28 l-3.48 -7.64 c-1.24 0.08 -2.2 0.04 -3.48 0.04 l0 7.36 c0 0.28 -0.24 0.52 -0.52 0.52 l-5.16 0 z M8.2 26.560000000000002 c0 0 5.04 0.56 6.8 -0.6 c0.68 -0.44 1.08 -1.52 1.08 -2.32 c-0.04 -0.88 -0.48 -1.8 -1.2 -2.36 c-0.76 -0.64 -2.64 -0.84 -3.6 -0.84 l-3.08 0.08 l0 6.04 z M26.080000000000002 40 l0 -23.96 c0 -1 0.2 -1.2 0.52 -1.2 l17.52 0 c0.28 0 0.52 0.2 0.52 0.48 l0 4.52 c0 0.28 -0.24 0.52 -0.52 0.52 l-11.84 0 l0 4.16 l7.48 0 c0.28 0 0.52 0.24 0.52 0.52 l0 4.48 c0 0.28 -0.24 0.52 -0.52 0.52 l-7.48 0 l0 4.28 l11.8 0 c0.28 0 0.52 0.24 0.52 0.52 l0 4.48 c0 0.28 -0.24 0.52 -0.52 0.52 l-17.48 0 c-0.32 0 -0.52 -0.24 -0.52 0.16 z M49.160000000000004 40 c-0.28 0 -0.52 -0.24 -0.52 -0.52 l0 -23.96 c0 -0.28 0.24 -0.52 0.52 -0.52 l5.2 0 c0.28 0 0.52 0.24 0.52 0.52 l0 18.72 l9 0 c0.28 0 0.52 0.24 0.52 0.52 l0 4.72 c0 0.28 -0.24 0.52 -0.52 0.52 l-14.72 0 z M79.68 40 c-2.4 0 -4.6 -0.56 -6.52 -1.68 c-1.96 -1.12 -3.52 -2.72 -4.68 -4.64 c-1.12 -1.96 -1.68 -4.2 -1.68 -6.6 c0 -2.36 0.56 -4.56 1.68 -6.52 c1.16 -1.96 2.68 -3.52 4.64 -4.64 s4.16 -1.68 6.56 -1.68 c2.36 0 4.56 0.56 6.52 1.68 s3.52 2.68 4.64 4.64 c1.16 1.96 1.72 4.16 1.72 6.52 c0 2.4 -0.56 4.6 -1.72 6.56 c-1.12 1.96 -2.68 3.52 -4.64 4.68 c-1.96 1.12 -4.16 1.68 -6.52 1.68 z M79.76000000000002 34.24 c1.16 0 2.24 -0.32 3.2 -0.92 c1 -0.64 1.8 -1.48 2.36 -2.6 c0.6 -1.08 0.88 -2.32 0.88 -3.64 c0 -1.28 -0.28 -2.52 -0.88 -3.6 c-0.56 -1.08 -1.36 -1.92 -2.36 -2.56 c-0.96 -0.6 -2.04 -0.92 -3.2 -0.92 c-1.2 0 -2.28 0.32 -3.28 0.92 c-1.04 0.64 -1.84 1.48 -2.44 2.56 c-0.6 1.12 -0.88 2.32 -0.88 3.6 c0 1.32 0.28 2.56 0.88 3.64 c0.64 1.08 1.44 1.96 2.44 2.56 c1 0.64 2.08 0.96 3.28 0.96 z M94.68 40 c-0.16 0 -0.32 -0.08 -0.4 -0.24 c-0.12 -0.12 -0.12 -0.32 -0.08 -0.48 l9.32 -23.96 c0.08 -0.2 0.28 -0.32 0.48 -0.32 l5.36 0 c0.2 0 0.4 0.12 0.48 0.32 l9.16 23.96 c0.04 0.16 0.04 0.32 -0.08 0.48 c-0.08 0.16 -0.24 0.24 -0.4 0.24 l-5.56 0 c-0.2 0 -0.4 -0.12 -0.48 -0.32 l-1.48 -3.68 l-9 0.04 l-1.48 3.64 c-0.08 0.2 -0.28 0.32 -0.48 0.32 l-5.36 0 z M103.64000000000001 31 l5.76 0 l-2.88 -8.48 z M123.16000000000001 40 c-0.32 0 -0.52 -0.24 -0.52 -0.52 l0 -23.96 c0 -0.28 0.2 -0.52 0.52 -0.52 l9.08 0 c2.4 0 4.6 0.52 6.52 1.6 c1.92 1.04 3.4 2.52 4.48 4.44 c1.04 1.88 1.6 4.04 1.6 6.44 c0 2.44 -0.56 4.6 -1.64 6.48 c-1.08 1.92 -2.6 3.4 -4.56 4.44 c-1.92 1.08 -4.16 1.6 -6.6 1.6 l-8.88 0 z M128.84 34.4 l3.52 0 c1.16 0 2.24 -0.28 3.16 -0.84 c0.92 -0.6 1.68 -1.4 2.2 -2.44 s0.8 -2.24 0.8 -3.6 c0 -1.32 -0.28 -2.56 -0.84 -3.6 c-0.56 -1.08 -1.32 -1.88 -2.28 -2.48 c-0.96 -0.56 -2.08 -0.88 -3.28 -0.88 l-3.28 0 l0 13.84 z M148.84 40 l0 -23.96 c0 -1 0.2 -1.2 0.52 -1.2 l17.52 0 c0.28 0 0.52 0.2 0.52 0.48 l0 4.52 c0 0.28 -0.24 0.52 -0.52 0.52 l-11.84 0 l0 4.16 l7.48 0 c0.28 0 0.52 0.24 0.52 0.52 l0 4.48 c0 0.28 -0.24 0.52 -0.52 0.52 l-7.48 0 l0 4.28 l11.8 0 c0.28 0 0.52 0.24 0.52 0.52 l0 4.48 c0 0.28 -0.24 0.52 -0.52 0.52 l-17.48 0 c-0.32 0 -0.52 -0.24 -0.52 0.16 z M171.92000000000002 40 c-0.32 0 -0.52 -0.24 -0.52 -0.52 l0 -23.96 c0 -0.28 0.2 -0.52 0.52 -0.52 l9.08 0 c2.4 0 4.6 0.52 6.52 1.6 c1.92 1.04 3.4 2.52 4.48 4.44 c1.04 1.88 1.6 4.04 1.6 6.44 c0 2.44 -0.56 4.6 -1.64 6.48 c-1.08 1.92 -2.6 3.4 -4.56 4.44 c-1.92 1.08 -4.16 1.6 -6.6 1.6 l-8.88 0 z M177.6 34.4 l3.52 0 c1.16 0 2.24 -0.28 3.16 -0.84 c0.92 -0.6 1.68 -1.4 2.2 -2.44 s0.8 -2.24 0.8 -3.6 c0 -1.32 -0.28 -2.56 -0.84 -3.6 c-0.56 -1.08 -1.32 -1.88 -2.28 -2.48 c-0.96 -0.56 -2.08 -0.88 -3.28 -0.88 l-3.28 0 l0 13.84 z"></path></g><g id="SvgjsG1037" featureKey="sloganFeature-0" transform="matrix(0.3346664123577779,0,0,0.3346664123577779,59.97992007430364,224.23296127253514)" fill="#ff2e63"><path d="M12.76 20 l-1.6 -3.72 l-7.94 0 l-1.6 3.72 l-1.56 0 l6.28 -14.58 l1.74 0 l6.3 14.58 l-1.62 0 z M10.58 14.879999999999999 l-3.4 -7.88 l-3.38 7.88 l6.78 0 z M40.204 9.6 l-1.46 0.52 c-0.18 -0.52 -0.42 -1.06 -1 -1.72 c-0.28 -0.3 -0.6 -0.6 -0.96 -0.84 c-0.72 -0.5 -1.84 -0.86 -3.06 -0.86 c-1.1 0 -2.08 0.26 -2.96 0.82 s-1.56 1.28 -2.04 2.2 c-0.48 0.9 -0.72 1.88 -0.72 2.96 c0 1.64 0.56 3.16 1.52 4.26 c0.98 1.1 2.5 1.78 4.22 1.78 c1.3 0 2.54 -0.42 3.48 -1.14 s1.58 -1.88 1.66 -3.22 l-6.08 0 l0 -1.42 l7.72 0 l0 0.56 c0 1.84 -0.66 3.5 -1.8 4.7 c-1.16 1.2 -2.94 1.94 -5 1.94 c-2.18 0 -4.08 -0.8 -5.32 -2.12 s-1.98 -3.2 -1.98 -5.26 c0 -1.38 0.32 -2.66 0.96 -3.8 s1.52 -2.04 2.64 -2.7 s2.38 -0.98 3.74 -0.98 c1.72 0 3.24 0.48 4.28 1.32 c1.06 0.82 1.76 1.82 2.16 3 z M56.976 20 l-1.86 0 l-4.32 -5.9 l-2.96 0 l0 5.9 l-1.54 0 l0 -14.58 l5.06 0 c1.72 0 3.1 0.48 3.9 1.28 s1.22 1.8 1.22 2.98 c0 2.46 -1.84 3.88 -4 4.16 z M47.836 6.859999999999999 l0 5.84 l3.38 0 c1.28 0 2.28 -0.36 2.86 -0.94 c0.56 -0.56 0.84 -1.26 0.84 -2.04 c0 -1.44 -0.88 -2.86 -3.66 -2.86 l-3.42 0 z M73.328 20 l-1.6 -3.72 l-7.94 0 l-1.6 3.72 l-1.56 0 l6.28 -14.58 l1.74 0 l6.3 14.58 l-1.62 0 z M71.148 14.879999999999999 l-3.4 -7.88 l-3.38 7.88 l6.78 0 z M91.76 5.42 l-5.86 14.58 l-1.7 0 l-5.86 -14.58 l1.68 0 l5.04 12.86 l5.06 -12.86 l1.64 0 z M97.11200000000001 20 l0 -14.58 l9.12 0 l0 1.42 l-7.58 0 l0 5.04 l6.94 0 l0 1.42 l-6.94 0 l0 5.28 l7.66 0 l0 1.42 l-9.2 0 z M117.26400000000001 12.4 l4.66 -6.98 l1.74 0 l-5.64 8.42 l0 6.16 l-1.56 0 l0 -6.14 l-5.64 -8.44 l1.84 0 z M139.796 20 l-1.6 -3.72 l-7.94 0 l-1.6 3.72 l-1.56 0 l6.28 -14.58 l1.74 0 l6.3 14.58 l-1.62 0 z M137.616 14.879999999999999 l-3.4 -7.88 l-3.38 7.88 l6.78 0 z M157.06799999999998 20 l-1.86 0 l-4.32 -5.9 l-2.96 0 l0 5.9 l-1.54 0 l0 -14.58 l5.06 0 c1.72 0 3.1 0.48 3.9 1.28 s1.22 1.8 1.22 2.98 c0 2.46 -1.84 3.88 -4 4.16 z M147.928 6.859999999999999 l0 5.84 l3.38 0 c1.28 0 2.28 -0.36 2.86 -0.94 c0.56 -0.56 0.84 -1.26 0.84 -2.04 c0 -1.44 -0.88 -2.86 -3.66 -2.86 l-3.42 0 z M162.68 20 l0 -14.58 l4.34 0 c1.12 0 2.16 0.18 3.12 0.56 c0.96 0.36 1.78 0.88 2.44 1.52 c1.34 1.3 2.14 3.14 2.14 5.18 c0 1.06 -0.2 2.06 -0.6 2.98 s-0.96 1.68 -1.64 2.32 c-1.38 1.26 -3.34 2.02 -5.46 2.02 l-4.34 0 z M164.22 6.859999999999999 l0 11.7 l2.74 0 c1.22 0 2.3 -0.26 3.22 -0.76 c0.94 -0.5 1.68 -1.18 2.18 -2.06 c0.52 -0.88 0.78 -1.9 0.78 -3.02 c0 -1.66 -0.62 -3.14 -1.68 -4.2 c-1.04 -1.04 -2.66 -1.66 -4.5 -1.66 l-2.74 0 z M190.264 20 l-1.54 0 l0 -14.58 l1.54 0 l0 6.44 l0.1 0 l6.54 -6.44 l2.12 0 l-7.14 6.98 l7.48 7.6 l-2.16 0 l-6.84 -7.02 l-0.1 0 l0 7.02 z M204.216 20 l0 -14.58 l9.12 0 l0 1.42 l-7.58 0 l0 5.04 l6.94 0 l0 1.42 l-6.94 0 l0 5.28 l7.66 0 l0 1.42 l-9.2 0 z M219.46800000000002 20 l0 -14.58 l9.12 0 l0 1.42 l-7.58 0 l0 5.04 l6.94 0 l0 1.42 l-6.94 0 l0 5.28 l7.66 0 l0 1.42 l-9.2 0 z M239.36 14.3 l-3.1 0 l0 5.7 l-1.54 0 l0 -14.58 l4.88 0 c3.56 -0.02 5.12 2.12 5.12 4.38 c0 1.26 -0.48 2.36 -1.34 3.18 c-0.88 0.82 -2.3 1.32 -4.02 1.32 z M239.48000000000002 6.859999999999999 l-3.22 0 l0 6.02 l3.14 0 c1.3 0 2.32 -0.38 2.9 -0.98 c0.58 -0.58 0.86 -1.3 0.86 -2.06 c0 -1.42 -0.82 -2.98 -3.68 -2.98 z M250.29200000000003 20 l0 -14.58 l9.12 0 l0 1.42 l-7.58 0 l0 5.04 l6.94 0 l0 1.42 l-6.94 0 l0 5.28 l7.66 0 l0 1.42 l-9.2 0 z M276.224 20 l-1.86 0 l-4.32 -5.9 l-2.96 0 l0 5.9 l-1.54 0 l0 -14.58 l5.06 0 c1.72 0 3.1 0.48 3.9 1.28 s1.22 1.8 1.22 2.98 c0 2.46 -1.84 3.88 -4 4.16 z M267.084 6.859999999999999 l0 5.84 l3.38 0 c1.28 0 2.28 -0.36 2.86 -0.94 c0.56 -0.56 0.84 -1.26 0.84 -2.04 c0 -1.44 -0.88 -2.86 -3.66 -2.86 l-3.42 0 z M302.94800000000004 5.42 l2.2 0 l0 14.58 l-1.52 0 l0 -12.5 l0 0 l-5.42 12.5 l-1.38 0 l-5.38 -12.4 l0 0 l0 12.4 l-1.52 0 l0 -14.58 l2.18 0 l5.44 12.5 z M325.74000000000007 12.68 c0 1.38 -0.32 2.64 -0.94 3.78 c-0.64 1.14 -1.52 2.04 -2.64 2.7 c-1.14 0.66 -2.38 1 -3.78 1 c-1.02 0 -1.98 -0.2 -2.9 -0.58 c-0.9 -0.38 -1.68 -0.9 -2.32 -1.58 c-0.64 -0.64 -1.14 -1.42 -1.52 -2.34 c-0.36 -0.92 -0.56 -1.88 -0.56 -2.9 c0 -1.38 0.32 -2.64 0.96 -3.78 c0.62 -1.14 1.5 -2.06 2.64 -2.72 c1.12 -0.66 2.38 -0.98 3.76 -0.98 c1.02 0 1.98 0.18 2.9 0.56 c0.9 0.4 1.68 0.92 2.32 1.56 c0.64 0.68 1.16 1.46 1.52 2.36 c0.38 0.92 0.56 1.88 0.56 2.92 z M324.16 12.76 c0 -1.64 -0.6 -3.16 -1.6 -4.26 s-2.5 -1.8 -4.18 -1.8 c-1.08 0 -2.06 0.28 -2.94 0.8 c-0.88 0.56 -1.56 1.28 -2.04 2.18 c-0.48 0.92 -0.72 1.92 -0.72 3 c0 1.62 0.6 3.16 1.6 4.24 c1 1.1 2.5 1.8 4.16 1.8 c1.08 0 2.06 -0.28 2.94 -0.82 c0.9 -0.52 1.58 -1.26 2.06 -2.16 s0.72 -1.9 0.72 -2.98 z M331.65200000000004 20 l0 -14.58 l4.34 0 c1.12 0 2.16 0.18 3.12 0.56 c0.96 0.36 1.78 0.88 2.44 1.52 c1.34 1.3 2.14 3.14 2.14 5.18 c0 1.06 -0.2 2.06 -0.6 2.98 s-0.96 1.68 -1.64 2.32 c-1.38 1.26 -3.34 2.02 -5.46 2.02 l-4.34 0 z M333.19200000000006 6.859999999999999 l0 11.7 l2.74 0 c1.22 0 2.3 -0.26 3.22 -0.76 c0.94 -0.5 1.68 -1.18 2.18 -2.06 c0.52 -0.88 0.78 -1.9 0.78 -3.02 c0 -1.66 -0.62 -3.14 -1.68 -4.2 c-1.04 -1.04 -2.66 -1.66 -4.5 -1.66 l-2.74 0 z M370.71600000000007 5.42 l2.2 0 l0 14.58 l-1.52 0 l0 -12.5 l0 0 l-5.42 12.5 l-1.38 0 l-5.38 -12.4 l0 0 l0 12.4 l-1.52 0 l0 -14.58 l2.18 0 l5.44 12.5 z M390.60800000000006 20 l-1.6 -3.72 l-7.94 0 l-1.6 3.72 l-1.56 0 l6.28 -14.58 l1.74 0 l6.3 14.58 l-1.62 0 z M388.42800000000005 14.879999999999999 l-3.4 -7.88 l-3.38 7.88 l6.78 0 z M407.58000000000004 5.42 l1.5 0 l0 14.58 l-1.66 0 l-8.7 -12.4 l0 12.4 l-1.52 0 l0 -14.58 l1.78 0 l8.6 12.26 l0 -12.26 z M426.77200000000005 20 l-1.6 -3.72 l-7.94 0 l-1.6 3.72 l-1.56 0 l6.28 -14.58 l1.74 0 l6.3 14.58 l-1.62 0 z M424.59200000000004 14.879999999999999 l-3.4 -7.88 l-3.38 7.88 l6.78 0 z M446.124 9.6 l-1.46 0.52 c-0.18 -0.52 -0.42 -1.06 -1 -1.72 c-0.28 -0.3 -0.6 -0.6 -0.96 -0.84 c-0.72 -0.5 -1.84 -0.86 -3.06 -0.86 c-1.1 0 -2.08 0.26 -2.96 0.82 s-1.56 1.28 -2.04 2.2 c-0.48 0.9 -0.72 1.88 -0.72 2.96 c0 1.64 0.56 3.16 1.52 4.26 c0.98 1.1 2.5 1.78 4.22 1.78 c1.3 0 2.54 -0.42 3.48 -1.14 s1.58 -1.88 1.66 -3.22 l-6.08 0 l0 -1.42 l7.72 0 l0 0.56 c0 1.84 -0.66 3.5 -1.8 4.7 c-1.16 1.2 -2.94 1.94 -5 1.94 c-2.18 0 -4.08 -0.8 -5.32 -2.12 s-1.98 -3.2 -1.98 -5.26 c0 -1.38 0.32 -2.66 0.96 -3.8 s1.52 -2.04 2.64 -2.7 s2.38 -0.98 3.74 -0.98 c1.72 0 3.24 0.48 4.28 1.32 c1.06 0.82 1.76 1.82 2.16 3 z M452.216 20 l0 -14.58 l9.12 0 l0 1.42 l-7.58 0 l0 5.04 l6.94 0 l0 1.42 l-6.94 0 l0 5.28 l7.66 0 l0 1.42 l-9.2 0 z M478.148 20 l-1.86 0 l-4.32 -5.9 l-2.96 0 l0 5.9 l-1.54 0 l0 -14.58 l5.06 0 c1.72 0 3.1 0.48 3.9 1.28 s1.22 1.8 1.22 2.98 c0 2.46 -1.84 3.88 -4 4.16 z M469.00800000000004 6.859999999999999 l0 5.84 l3.38 0 c1.28 0 2.28 -0.36 2.86 -0.94 c0.56 -0.56 0.84 -1.26 0.84 -2.04 c0 -1.44 -0.88 -2.86 -3.66 -2.86 l-3.42 0 z"></path></g>
			</g>
		</svg>
	